<svg xmlns="http://www.w3.org/2000/svg" version="1.1" xmlns:xlink="http://www.w3.org/1999/xlink" xmlns:svgjs="http://svgjs.dev/svgjs" width="100px" height="100px"><svg width="100px" height="100px" viewBox="0 0 100 100" version="1.1" xmlns="http://www.w3.org/2000/svg" xmlns:xlink="http://www.w3.org/1999/xlink">
    <title>logo-imprint-white</title>
    <defs>
        <polygon id="SvgjsPolygon1077" points="1.65155501e-15 -2.06482423e-15 100 -2.06482423e-15 100 100 1.65155501e-15 100"></polygon>
        <polygon id="SvgjsPolygon1076" points="1.65155501e-15 -2.06482423e-15 100 -2.06482423e-15 100 100 1.65155501e-15 100"></polygon>
        <polygon id="SvgjsPolygon1075" points="1.65155501e-15 -2.06482423e-15 100 -2.06482423e-15 100 100 1.65155501e-15 100"></polygon>
        <polygon id="SvgjsPolygon1074" points="1.65155501e-15 -2.06482423e-15 100 -2.06482423e-15 100 100 1.65155501e-15 100"></polygon>
        <polygon id="SvgjsPolygon1073" points="1.65155501e-15 -2.06482423e-15 100 -2.06482423e-15 100 100 1.65155501e-15 100"></polygon>
        <polygon id="SvgjsPolygon1072" points="1.65155501e-15 -2.06482423e-15 100 -2.06482423e-15 100 100 1.65155501e-15 100"></polygon>
        <polygon id="SvgjsPolygon1071" points="1.65155501e-15 -2.06482423e-15 100 -2.06482423e-15 100 100 1.65155501e-15 100"></polygon>
        <polygon id="SvgjsPolygon1070" points="1.65155501e-15 -2.06482423e-15 100 -2.06482423e-15 100 100 1.65155501e-15 100"></polygon>
        <polygon id="SvgjsPolygon1069" points="1.65155501e-15 -2.06482423e-15 100 -2.06482423e-15 100 100 1.65155501e-15 100"></polygon>
        <polygon id="SvgjsPolygon1068" points="1.65155501e-15 -2.06482423e-15 100 -2.06482423e-15 100 100 1.65155501e-15 100"></polygon>
        <polygon id="SvgjsPolygon1067" points="1.65155501e-15 -2.06482423e-15 100 -2.06482423e-15 100 100 1.65155501e-15 100"></polygon>
        <polygon id="SvgjsPolygon1066" points="1.65155501e-15 -2.06482423e-15 100 -2.06482423e-15 100 100 1.65155501e-15 100"></polygon>
        <polygon id="SvgjsPolygon1065" points="1.65155501e-15 -2.06482423e-15 100 -2.06482423e-15 100 100 1.65155501e-15 100"></polygon>
    </defs>
    <g stroke="none" stroke-width="1" fill="none" fill-rule="evenodd">
        <g>
            <g>
                <mask id="SvgjsMask1064" fill="white">
                    <use xlink:href="#path-1"></use>
                </mask>
                <g id="SvgjsG1063"></g>
                <path d="M8.83544618,41.4904314 C8.48307508,41.6137475 7.41718592,42.1950226 7.41718592,43.6662414 C7.41718592,45.0756761 8.02501535,45.8508777 9.42564822,45.8508777 L13.927061,45.8508777 L13.927061,46.9342435 L9.42564822,46.9342435 C7.27624252,46.9342435 6.35129676,45.5601141 6.35129676,43.7365997 C6.35129676,41.4816051 7.56695562,40.8473721 8.35095798,40.5036506 L8.83544618,41.4904314 Z M14.1296624,47.1369963 L9.4344493,47.1369963 C7.38195638,47.1369963 6.15749644,45.8685303 6.15749644,43.7365997 C6.15749644,41.5519634 7.2322119,40.785588 8.27167259,40.3276289 L8.44784553,40.2570185 L9.11733297,41.6137475 L8.90593048,41.6841057 C8.85307356,41.7017583 7.62861362,42.142317 7.62861362,43.6750677 C7.62861362,45.0315445 8.20118829,45.6569512 9.4432756,45.6569512 L14.1384635,45.6569512 L14.1384635,47.1369963 L14.1296624,47.1369963 Z M14.1825194,56.280795 L13.1166302,56.3423269 L12.817116,51.2684631 L10.8703369,51.3829528 L11.0200814,53.9375374 L9.95419226,53.9990693 L9.80444778,51.4444848 L7.54052715,51.5766272 L7.85764349,56.8532438 L6.79175433,56.9150279 L6.41297999,50.5547933 L13.8125461,50.1144869" fill="#162F40" fill-rule="nonzero" mask="url(#mask-2)"></path>
            </g>
            <g>
                <mask id="SvgjsMask1062" fill="white">
                    <use xlink:href="#path-3"></use>
                </mask>
                <g id="SvgjsG1061"></g>
                <path d="M6.60672987,57.1263549 L6.20152707,50.3696931 L13.9974949,49.9029078 L14.3938966,56.465643 L12.9316057,56.5536538 L12.6321168,51.4709637 L11.0817142,51.5678009 L11.2314839,54.1223854 L9.7691678,54.2103962 L9.61942333,51.6558117 L7.75190442,51.7614752 L8.06904597,57.0292655 M15.0105271,59.9626246 L11.0464847,65.9793899 L11.0552857,65.9967903 L16.41116,64.2438863 L16.75473,65.2745465 L9.69870871,67.5824988 L9.363965,66.5518387 L13.3192064,60.5353256 L13.3192064,60.517673 L7.96333212,62.2708291 L7.61978732,61.240169 L14.6669823,58.9233903" fill="#162F40" fill-rule="nonzero" mask="url(#mask-4)"></path>
            </g>
            <g>
                <mask id="SvgjsMask1060" fill="white">
                    <use xlink:href="#path-5"></use>
                </mask>
                <g id="SvgjsG1059"></g>
                <path d="M9.57541792,67.8382095 L9.14376143,66.525612 L12.8699729,60.8702208 L7.83121503,62.5174613 L7.37315529,61.116853 L14.7991499,58.6767582 L15.22198,59.9893557 L11.5045696,65.6447469 L16.5345265,63.9886801 L17.0014125,65.3981147 M13.4954298,70.6570788 C13.4866035,71.2648328 13.1871145,72.3219719 14.164892,73.8458963 C14.7110634,74.7005347 15.7593252,75.678237 16.5257254,75.1849727 C17.5475587,74.5242608 16.7811837,73.3349794 16.270267,72.5332988 L15.6624376,71.5820754 C15.1074651,70.7188629 14.9224659,69.4062654 16.0588393,68.6749431 C17.3801868,67.8293832 18.9570179,68.9657068 19.7057655,70.1285092 C20.6219101,71.5644228 20.5426248,72.9034992 20.5249974,73.2734474 L19.4679345,73.2204896 C19.432705,72.4717668 19.5119651,71.7934023 18.8248755,70.727437 C18.3139589,69.9348349 17.3801868,69.1155017 16.6402403,69.5822871 C16.1557521,69.8907034 16.1557521,70.4016203 16.6226129,71.1238641 L17.159958,71.9608499 C18.1113323,73.4494691 18.6486774,75.0881355 17.1071011,76.0834904 C15.803381,76.920224 14.2441774,75.9248691 13.2311451,74.3479869 C11.9978841,72.4364616 12.3502552,71.0182007 12.4735712,70.3839677 L13.4954298,70.6570788 Z M16.0940689,76.6120599 C15.0546082,76.6120599 13.9182599,75.8103793 13.0637733,74.4713029 C11.8393133,72.568604 12.1300264,71.1326904 12.2621687,70.4369255 L12.3150004,70.1638145 L13.6892049,70.5072838 L13.6892049,70.6659051 C13.6892049,70.7627422 13.6804038,70.877232 13.6716027,71.0005481 C13.6187458,71.6085543 13.5482615,72.5244725 14.3322638,73.7490591 C14.8520068,74.559566 15.8298095,75.4139522 16.4288126,75.0263514 C17.2216413,74.5154345 16.7371279,73.6169167 16.1204973,72.6566149 L15.5126931,71.7053915 C15.1867505,71.2033009 15.0193786,70.6129472 15.0458071,70.0843777 C15.0810367,69.4327443 15.398153,68.8953485 15.9619518,68.5342266 C16.2966955,68.3138212 16.6754698,68.2081577 17.0630705,68.2081577 C18.1994187,68.2081577 19.3005627,69.1331543 19.8907647,70.0493247 C20.5161963,71.027027 20.8069094,72.1282975 20.7364251,73.2996741 L20.727624,73.4936007 L20.5338237,73.4936007 L19.3005627,73.4318165 L19.2829353,72.9826837 C19.2653331,72.3484508 19.2477057,71.749523 18.6751059,70.8595794 C18.1994187,70.1196829 17.3449573,69.4062654 16.7635563,69.7762136 C16.6138118,69.8730508 16.5257254,69.9875406 16.4992969,70.1196829 C16.4552411,70.3398362 16.5521538,70.6570788 16.8076122,71.0446796 L17.3449573,71.8814132 C17.9175319,72.7799309 18.2258472,73.5465585 18.2875304,74.2158445 C18.3579895,75.0881355 18.0056436,75.7750741 17.2304424,76.2683384 C16.8692702,76.4975701 16.4904706,76.6120599 16.0940689,76.6120599 Z M27.3166836,79.0521547 L26.5767875,79.81853 L22.9034329,76.2948173 L21.555657,77.704252 L23.4055485,79.4836348 L22.6744031,80.2500102 L20.8157105,78.4794536 L19.2477057,80.1090415 L23.0620037,83.7648966 L22.3220572,84.5400983 L17.7325579,80.1266941 L22.8594023,74.7708929" fill="#162F40" fill-rule="nonzero" mask="url(#mask-6)"></path>
            </g>
            <g>
                <mask id="SvgjsMask1058" fill="white">
                    <use xlink:href="#path-7"></use>
                </mask>
                <g id="SvgjsG1057"></g>
                <path d="M22.3308583,84.8132093 L17.4506459,80.1355204 L22.850576,74.4977819 L27.5986208,79.0433284 L26.5856138,80.1002152 L22.912234,76.5767547 L21.8375438,77.704252 L23.6874353,79.4748085 L22.6744031,80.5319476 L20.8245116,78.7525647 L19.5295925,80.1090415 L23.3438905,83.7648966 M30.4174888,81.1926595 L31.5802907,88.3104431 L31.589117,88.3192694 L34.3550271,83.3949484 L35.2976759,83.9323442 L31.6683015,90.3979901 L30.7259049,89.8694206 L29.563103,82.7607154 L29.5454504,82.7518891 L26.7881144,87.6673838 L25.8457177,87.1388143 L29.47484,80.6640899" fill="#162F40" fill-rule="nonzero" mask="url(#mask-8)"></path>
            </g>
            <g>
                <mask id="SvgjsMask1056" fill="white">
                    <use xlink:href="#path-9"></use>
                </mask>
                <g id="SvgjsG1055"></g>
                <path d="M31.7477382,90.670849 L30.5408048,89.9927366 L29.4574395,83.3155116 L26.8675511,87.9314164 L25.5726068,87.2089204 L29.3956554,80.399553 L30.6025889,81.0690912 L31.6862063,87.7551425 L34.2758426,83.1304114 L35.5707868,83.8529075 M44.5032542,89.8870732 L47.9298759,90.3979901 L47.6391124,92.3445684 C47.4454381,93.6659921 45.8420778,94.326704 43.9658587,94.0447667 C41.9748977,93.7454289 40.0986785,92.0891099 40.4686266,89.6051358 C40.785869,87.5085104 42.7412726,86.0461179 45.1286606,86.3986657 C46.9080426,86.6629504 47.7097228,87.7286636 48.0796708,88.2045275 L47.225285,88.8475867 C46.9080426,88.4423333 46.4324311,87.6759579 45.0845291,87.4732051 C43.1026466,87.1738673 41.7723971,88.2748857 41.5434177,89.8164627 C41.3230124,91.2523763 42.2921401,92.7235951 44.1771855,93.0052802 C45.4721297,93.1992068 46.4851368,92.7498218 46.582226,92.1244151 L46.7055421,91.3053341 L44.3534593,90.9527863 L44.5032542,89.8870732 Z M44.7937656,94.3090514 C44.5120805,94.3090514 44.221317,94.2913988 43.9305535,94.2475195 C41.8604079,93.9391032 39.8785254,92.1950255 40.266126,89.5786569 C40.5654637,87.5614682 42.2744875,86.1520335 44.4149912,86.1520335 C44.6618754,86.1520335 44.9085075,86.1696861 45.1551395,86.2135655 C46.9698267,86.4866765 47.8065599,87.5438156 48.2118131,88.0547325 L48.3351291,88.2133538 L48.2029868,88.3717229 L47.1899798,89.1292719 L46.9960534,88.8738135 C46.6878895,88.4688122 46.2208521,87.8519797 45.0580502,87.6847843 C43.3227997,87.4204995 41.9660714,88.3278435 41.7370919,89.8605943 C41.552244,91.1202339 42.3362716,92.5473212 44.2124907,92.8292585 C45.2961081,92.9876276 46.3091151,92.635332 46.3882996,92.1155888 L46.4851368,91.4901821 L44.1421325,91.1378865 L44.3534593,89.6931467 L48.1676816,90.2658477 L47.8506914,92.4063525 C47.656765,93.5515024 46.45891,94.3090514 44.7937656,94.3090514 Z M50.7399175,86.9622882 L53.2945008,89.9309525 L55.3119407,86.59234 L56.6860695,86.4778502 L53.8936805,90.94396 L54.1579651,94.1330297 L53.0743477,94.2210406 L52.8188894,91.0322231 L49.436147,87.0679517" fill="#162F40" fill-rule="nonzero" mask="url(#mask-10)"></path>
            </g>
            <g>
                <mask id="SvgjsMask1054" fill="white">
                    <use xlink:href="#path-11"></use>
                </mask>
                <g id="SvgjsG1053"></g>
                <path d="M52.8980739,94.4323675 L52.6249629,91.1114076 L49.03972,86.9007563 L50.819102,86.7597876 L53.2591956,89.5963095 L55.1883725,86.4072398 L57.0560175,86.2488707 L54.096181,90.9969178 L54.3692919,94.3090514 M60.2360072,87.8519797 L60.2183546,87.860806 L61.9185521,92.7674744 L60.8878925,93.11977 L58.4654515,86.107902 L59.4961111,85.7553542 L63.4336494,89.2702406 L64.3586456,84.0730607 L65.3893053,83.7205129 L67.8117462,90.7326331 L66.7810866,91.0849287 L65.0897154,86.1782603 L65.072315,86.1870866 L64.1384925,91.3315608" fill="#162F40" fill-rule="nonzero" mask="url(#mask-12)"></path>
            </g>
            <g>
                <mask id="SvgjsMask1052" fill="white">
                    <use xlink:href="#path-13"></use>
                </mask>
                <g id="SvgjsG1051"></g>
                <path d="M60.7645764,93.3754806 L58.2099932,85.9934122 L59.5399904,85.5354532 L63.3015071,88.8917183 L64.1823718,83.9232657 L65.5126213,83.4741329 L68.0583783,90.8559492 L66.6577706,91.3406393 L65.1338469,86.9184089 L64.2706348,91.7105876 L60.6412604,88.4688122 L62.1651841,92.8907905 M69.1066905,81.5888344 L76.0217179,83.6151016 L76.0393705,83.6062753 L72.7887705,78.9991968 L73.6784615,78.3649639 L77.9508949,84.4341826 L77.0612039,85.0595893 L70.1461764,83.0335743 L70.1285238,83.0512269 L73.3791238,87.6583053 L72.4894328,88.283712 L68.2169995,82.2144933" fill="#162F40" fill-rule="nonzero" mask="url(#mask-14)"></path>
            </g>
            <g>
                <mask id="SvgjsMask1050" fill="white">
                    <use xlink:href="#path-15"></use>
                </mask>
                <g id="SvgjsG1049"></g>
                <path d="M72.4453013,88.5573274 L67.9438885,82.1708661 L69.0713853,81.3780118 L75.5637591,83.2807108 L72.5159117,78.9467434 L73.722593,78.092105 L78.2240058,84.4876448 L77.0965091,85.2802469 L70.6041352,83.3775479 L73.6522348,87.702689 M85.8703552,75.9780791 L85.0775013,76.9116499 L82.5229181,76.1452745 L80.3382828,78.7086854 L81.4746058,81.140206 L80.7082309,82.0387237 L77.2727829,74.6301764 L78.0565583,73.7140061 L85.8703552,75.9780791 Z M78.6469116,75.0530825 L79.8361925,77.6341459 L81.3777687,75.8282841 L78.6469116,75.0530825 Z M80.6464468,82.408672 L77.034725,74.6036975 L77.9862001,73.4938528 L86.2226507,75.8724156 L85.1478596,77.1408816 L82.5932763,76.3745062 L80.5760885,78.7439906 L81.7124116,81.175259 L80.6464468,82.408672 Z M79.0080334,75.3526724 L79.8977244,77.2641977 L81.0340474,75.9251213 L79.0080334,75.3526724 Z M85.7382129,72.2695184 C86.2667822,71.9787547 87.3324948,71.6968174 88.1518276,70.0848821 C88.6186127,69.177538 88.9270289,67.785756 88.1165224,67.3716763 C87.0331572,66.8166278 86.3900982,68.0850938 85.958366,68.9220796 L85.4474494,69.9262608 C84.9806642,70.8424311 83.9411783,71.6615121 82.7430712,71.0449318 C81.3424635,70.3315142 81.5361378,68.3935101 82.1615441,67.1600972 C82.9367454,65.644999 84.1348525,65.037245 84.4609213,64.8697974 L84.9541853,65.8036203 C84.328779,66.2088738 83.7031204,66.4908111 83.1306718,67.6183084 C82.6989397,68.4638683 82.461134,69.6796286 83.2363352,70.0848821 C83.7472519,70.3491668 84.1878103,70.0937084 84.5842373,69.3270809 L85.0421961,68.4373894 C85.8438763,66.8607594 86.997852,65.5658145 88.627439,66.4025481 C90.0103941,67.1073915 89.9312096,68.9571326 89.0768238,70.630852 C88.0373379,72.6571192 86.6455565,73.0709468 86.0375506,73.2825259 L85.7382129,72.2695184 Z M85.8965819,73.5379844 L85.500155,72.1812554 L85.6411236,72.1020708 C85.7293866,72.0579393 85.8262237,72.0052336 85.9407134,71.9522758 C86.4869353,71.6879911 87.3148422,71.3003902 87.9755538,69.996619 C88.2221858,69.5121811 88.3896333,68.9659589 88.4161122,68.5344788 C88.4514174,68.0235619 88.3192751,67.697493 88.0285116,67.547698 C87.8787167,67.4685134 87.737748,67.4332082 87.6056057,67.4332082 C86.9448942,67.4332082 86.478109,68.3493786 86.1346399,69.0100905 L85.623471,70.0142717 C85.2711756,70.7102888 84.5401058,71.4590115 83.5709781,71.4590115 C83.2628141,71.4590115 82.954398,71.379827 82.6462341,71.230032 C81.2103212,70.4987096 81.2368001,68.5433051 81.9855225,67.0809126 C82.5140918,66.0414262 83.3155198,65.2485719 84.3726583,64.7023498 L84.5489321,64.6143389 L84.6457692,64.7817865 L85.21847,65.8828049 L84.8308693,66.1120366 C84.2934738,66.4466796 83.7825571,66.76367 83.2981193,67.7063193 C83.0688877,68.1468779 82.9367454,68.6313159 82.919345,69.0189168 C82.9016924,69.4592232 83.0338347,69.7588132 83.3155198,69.8997819 C83.7295993,70.1111088 84.055668,69.8909556 84.3991372,69.2214174 L84.857096,68.3317259 C85.6852551,66.7197907 86.5925987,65.9357627 87.6232583,65.9357627 C87.9755538,65.9357627 88.3455018,66.0325999 88.7154499,66.2177001 C90.2658524,67.0105543 90.0986571,69.0453957 89.2528454,70.7191151 C88.2221858,72.7363038 86.8392307,73.2119155 86.1696929,73.440895 L85.8965819,73.5379844 Z" fill="#162F40" fill-rule="nonzero" mask="url(#mask-16)"></path>
            </g>
            <g transform="translate(84.883721, 61.627907)" fill="#162F40" fill-rule="nonzero">
                <g>
                    <polygon points="6.67380004 3.48837209 5.70009858e-24 1.11557215 0.302944142 3.2613405e-24 6.97674419 2.37279994"></polygon>
                </g>
            </g>
            <g transform="translate(84.883721, 61.627907)" fill="#162F40" fill-rule="nonzero">
                <g>
                    <polygon points="0.452586095 0 8.13953488 2.16786161 7.68668898 3.48837209 0 1.32051048"></polygon>
                </g>
            </g>
            <g>
                <mask id="SvgjsMask1048" fill="white">
                    <use xlink:href="#path-17"></use>
                </mask>
                <g id="SvgjsG1047"></g>
                <path d="M90.9618692,52.1579023 C92.3536506,52.3165236 93.842269,53.0211148 93.5341051,55.7696259 C93.225689,58.5181369 91.6225808,58.8880851 90.2305472,58.7294638 L85.6411236,58.2185469 L85.7644396,57.134929 L90.3538632,57.6458459 C91.4374807,57.769162 92.2830402,57.3992138 92.4769666,55.6463098 C92.6706408,53.8931537 91.9307447,53.3471837 90.8473795,53.232694 L86.2577037,52.7129507 L86.3810197,51.6293328 L90.9618692,52.1579023 Z M90.7414639,58.9672697 C90.556616,58.9672697 90.3803421,58.9584434 90.2043205,58.9319645 L85.4121442,58.3945687 L85.5795917,56.9236021 L90.3715158,57.4609979 C90.4860056,57.4786505 90.5919212,57.4786505 90.6975846,57.4786505 C91.3406435,57.4786505 92.0893659,57.2670714 92.2742139,55.6286572 C92.3624769,54.8534555 92.2656397,54.3072334 91.9837025,53.9549378 C91.7458968,53.6641741 91.3671224,53.4881524 90.8209006,53.4263683 L86.0375506,52.8889725 L86.2049981,51.4180059 L90.9969222,51.9554017 C91.8868654,52.0610652 92.58263,52.3604029 93.040841,52.8539194 C93.6485948,53.505805 93.8864005,54.4923336 93.7366056,55.7872785 C93.4899736,57.8924781 92.4946192,58.9672697 90.7414639,58.9672697 Z M88.4511652,47.5331712 L88.4511652,47.5596502 L93.6485948,47.5596502 L93.6485948,48.6430159 L86.2226507,48.6430159 L86.2226507,47.5596502 L90.8297269,44.9785867 L86.2226507,42.4063496 L86.2226507,41.3227316 L93.6485948,41.3227316 L93.6485948,42.4063496 L88.4511652,42.4063496 L88.4511652,42.4240022 L93.0143621,44.9785867" fill="#162F40" fill-rule="nonzero" mask="url(#mask-18)"></path>
            </g>
            <g>
                <mask id="SvgjsMask1046" fill="white">
                    <use xlink:href="#path-19"></use>
                </mask>
                <g id="SvgjsG1045"></g>
                <polyline fill="#162F40" fill-rule="nonzero" mask="url(#mask-20)" points="93.8425212 48.8369424 86.0289764 48.8369424 86.0289764 47.4451604 90.4332999 44.9785867 86.0289764 42.5208394 86.0289764 41.120231 93.8425212 41.120231 93.8425212 42.6002761 89.1648346 42.6002761 93.4107891 44.9785867 89.1648346 47.3571495 93.8425212 47.3571495"></polyline>
            </g>
            <g>
                <mask id="SvgjsMask1044" fill="white">
                    <use xlink:href="#path-21"></use>
                </mask>
                <g id="SvgjsG1043"></g>
                <path d="M50.0000214,2.44891526 C76.2595237,2.44891526 97.5510801,23.7403056 97.5510801,49.9999971 C97.5510801,76.2683384 76.2595237,97.5599052 50.0000214,97.5599052 C23.7402922,97.5599052 2.44891231,76.2683384 2.44891231,49.9999971 C2.44891231,23.7403056 23.7402922,2.44891526 50.0000214,2.44891526 Z M50.0000214,0 C22.4277458,0 0,22.4277585 0,50 C0,77.5721096 22.4277458,100 50.0000214,100 C77.5632942,100 100,77.5721096 100,50 C99.9911737,22.4277585 77.5632942,0 50.0000214,0 Z" fill="#162F40" fill-rule="nonzero" mask="url(#mask-22)"></path>
            </g>
            <g>
                <mask id="SvgjsMask1042" fill="white">
                    <use xlink:href="#path-23"></use>
                </mask>
                <g id="SvgjsG1041"></g>
                <polyline fill="#162F40" fill-rule="nonzero" mask="url(#mask-24)" points="27.0261723 22.3130922 25.9513812 22.691892 25.7224017 21.5995738 27.3343362 20.9476882 28.0744845 20.9476882 28.0744845 28.638072 27.0261723 28.638072"></polyline>
            </g>
            <g>
                <mask id="SvgjsMask1040" fill="white">
                    <use xlink:href="#path-25"></use>
                </mask>
                <g id="SvgjsG1039"></g>
                <path d="M31.465801,28.7702144 C31.0517214,28.7702144 30.6905997,28.6910299 30.3824357,28.514756 C30.0740196,28.3475605 29.7920824,28.1271551 29.5366241,27.8628704 L30.1093248,26.8410366 C30.3383042,27.0876687 30.5584574,27.2727689 30.7700364,27.3872587 C30.9901895,27.5017484 31.2191689,27.5635326 31.4834536,27.5635326 C31.7036067,27.5635326 31.9063594,27.5017484 32.082381,27.3872587 C32.2586549,27.2727689 32.4084498,27.1053213 32.5317658,26.8939944 C32.6550818,26.6826674 32.7519189,26.4183827 32.8225293,26.1187927 C32.8928875,25.828029 32.9281927,25.5022123 32.9458453,25.1496645 C32.7960504,25.3877226 32.6109503,25.5725706 32.3731446,25.7311919 C32.1441651,25.8809869 31.8622279,25.9601714 31.5364114,25.9601714 C31.2191689,25.9601714 30.9284054,25.9074658 30.6641208,25.7927238 C30.3998362,25.6782341 30.179683,25.5198649 29.9948351,25.3082858 C29.809735,25.0969589 29.6687664,24.8414752 29.563103,24.550762 C29.4574395,24.2512729 29.4044817,23.916529 29.4044817,23.5465304 L29.4044817,23.5113008 C29.4044817,23.1413274 29.4574395,22.7889561 29.5719293,22.4718396 C29.6775927,22.1458968 29.8362139,21.8728362 30.0298881,21.6349799 C30.2238145,21.3971488 30.4704466,21.2121495 30.7435575,21.0800071 C31.0166684,20.94789 31.3160061,20.8774056 31.6509011,20.8774056 C32.0296754,20.8774056 32.3466657,20.9390637 32.602124,21.0800071 C32.8664086,21.2121495 33.0953881,21.414751 33.3069671,21.6878368 C33.5359465,21.9697238 33.7122203,22.3396972 33.8443626,22.7977824 C33.9765049,23.2558423 34.0380369,23.8548458 34.0380369,24.603619 L34.0380369,24.6212463 C34.0380369,25.2291013 33.9853312,25.7927238 33.8620152,26.3036407 C33.7472733,26.8148098 33.580078,27.2551163 33.3596727,27.6162382 C33.1395196,27.9773601 32.8664086,28.2681238 32.5494184,28.4708766 C32.2233497,28.6733772 31.8622279,28.7702144 31.465801,28.7702144 Z M31.6859541,24.8326489 C31.8798805,24.8326489 32.047328,24.7974194 32.1968708,24.7181339 C32.3466657,24.6388485 32.478808,24.5419609 32.5844714,24.4186448 C32.690387,24.2865025 32.7695715,24.145559 32.8225293,23.9869881 C32.8752349,23.8196162 32.9105401,23.6434432 32.9105401,23.4584438 L32.9105401,23.4408417 C32.9105401,23.0356135 32.7960504,22.7008696 32.567071,22.43661 C32.3378394,22.1635242 32.0385017,22.0313818 31.6509011,22.0313818 C31.465801,22.0313818 31.2897793,22.0666366 31.1488107,22.1370957 C30.9990158,22.2163811 30.8756998,22.3132687 30.7788627,22.4454111 C30.6729471,22.5775535 30.5937626,22.727298 30.5408048,22.89467 C30.4880992,23.070843 30.4616203,23.2558423 30.4616203,23.4496428 L30.4616203,23.4760712 C30.4616203,23.8812742 30.5672837,24.207217 30.7962631,24.4626755 C31.0078421,24.7005318 31.3071798,24.8326489 31.6859541,24.8326489 Z M37.0947105,28.7702144 C36.6808831,28.7702144 36.3195092,28.6910299 36.0113453,28.514756 C35.7117554,28.3475605 35.4298182,28.1271551 35.1743599,27.8628704 L35.7470606,26.8410366 C35.9760401,27.0876687 36.1961932,27.2727689 36.4165985,27.3872587 C36.6279253,27.5017484 36.8657311,27.5635326 37.1211894,27.5635326 C37.3413425,27.5635326 37.5440952,27.5017484 37.7201169,27.3872587 C37.8963907,27.2727689 38.0461856,27.1053213 38.1695016,26.8939944 C38.2928176,26.6826674 38.3896547,26.4183827 38.4514388,26.1187927 C38.5217971,25.828029 38.5571023,25.5022123 38.5747549,25.1496645 C38.4249599,25.3877226 38.2398598,25.5725706 38.0020541,25.7311919 C37.7730747,25.8809869 37.4911374,25.9601714 37.1653209,25.9601714 C36.8480785,25.9601714 36.5487408,25.9074658 36.2932825,25.7927238 C36.0378242,25.6782341 35.8085926,25.5198649 35.6237446,25.3082858 C35.4386445,25.0969589 35.2888496,24.8414752 35.1920125,24.550762 C35.0863491,24.2512729 35.0422176,23.916529 35.0422176,23.5465304 L35.0422176,23.5113008 C35.0422176,23.1413274 35.0951754,22.7889561 35.2096651,22.4718396 C35.3241548,22.1458968 35.4739497,21.8728362 35.667624,21.6349799 C35.8703767,21.3971488 36.0993561,21.2121495 36.3812933,21.0800071 C36.6544042,20.94789 36.9537419,20.8774056 37.2886369,20.8774056 C37.6674113,20.8774056 37.9844015,20.9390637 38.2486861,21.0800071 C38.5129708,21.2121495 38.7507765,21.414751 38.9623555,21.6878368 C39.1825086,21.9697238 39.3676087,22.3396972 39.4909248,22.7977824 C39.6230671,23.2558423 39.684599,23.8548458 39.684599,24.603619 L39.684599,24.6212463 C39.684599,25.2291013 39.6230671,25.7927238 39.5085774,26.3036407 C39.3852613,26.8148098 39.2178138,27.2551163 38.9976607,27.6162382 C38.7772554,27.9773601 38.5041445,28.2681238 38.1871542,28.4708766 C37.8610855,28.6733772 37.4999637,28.7702144 37.0947105,28.7702144 Z M37.3151158,24.8326489 C37.4999637,24.8326489 37.6674113,24.7974194 37.8260325,24.7181339 C37.9755752,24.6476748 38.1077175,24.5419609 38.2136331,24.4186448 C38.3192965,24.2865025 38.398481,24.145559 38.4514388,23.9869881 C38.5041445,23.8196162 38.5306234,23.6434432 38.5306234,23.4584438 L38.5306234,23.4408417 C38.5306234,23.0356135 38.4161336,22.7008696 38.1871542,22.43661 C37.9581748,22.1635242 37.658585,22.0313818 37.2709843,22.0313818 C37.0770579,22.0313818 36.9098626,22.0666366 36.768894,22.1370957 C36.619099,22.2163811 36.495783,22.3132687 36.3901196,22.4454111 C36.2844562,22.5775535 36.2050195,22.727298 36.1523139,22.89467 C36.0993561,23.070843 36.0728772,23.2558423 36.0728772,23.4496428 L36.0728772,23.4760712 C36.0728772,23.8812742 36.1785406,24.207217 36.4077722,24.4626755 C36.6367516,24.7005318 36.9363415,24.8326489 37.3151158,24.8326489 Z M43.0496888,28.7702144 C42.6797407,28.7702144 42.353672,28.6998562 42.0808132,28.5677138 C41.8077023,28.4267451 41.5784707,28.2328186 41.3759702,27.9773601 C41.2614805,27.8366436 41.1646433,27.669196 41.0675541,27.4929221 C40.9795432,27.3169004 40.9003587,27.1141476 40.8385746,26.8763418 C40.7770427,26.6385359 40.7240849,26.3742512 40.6887797,26.0834875 C40.6537267,25.7841497 40.6360741,25.4404282 40.6360741,25.0616537 L40.6360741,25.0263485 C40.6360741,24.4450733 40.6887797,23.8989016 40.8032694,23.3967858 C40.909185,22.89467 41.0763804,22.4542122 41.2879594,22.0754377 C41.4992862,21.6966379 41.7723971,21.4059499 42.0982137,21.1945473 C42.4242824,20.9743184 42.7942304,20.8774056 43.2171363,20.8774056 C43.6047369,20.8774056 43.9393798,20.94789 44.2301433,21.0976345 C44.5209068,21.2473791 44.7937656,21.4588069 45.0580502,21.7230664 L44.4944279,22.7537265 C44.2828489,22.5423239 44.0803484,22.3837531 43.886422,22.260437 C43.6927477,22.1370957 43.4637683,22.0842388 43.1994837,22.0842388 C42.9793305,22.0842388 42.7765778,22.145922 42.6005562,22.2692381 C42.4242824,22.3925542 42.2833138,22.5599261 42.1599978,22.780155 C42.0366817,23.0003839 41.9486709,23.2558423 41.8780605,23.5553567 C41.8165286,23.8548458 41.7723971,24.1719875 41.7547445,24.5243335 L42.0102028,24.2424466 C42.10704,24.145559 42.2129556,24.0662736 42.3274453,23.9958144 C42.4507613,23.9253301 42.5740773,23.8724732 42.7150459,23.8284425 C42.8560145,23.7843866 43.0143836,23.7579582 43.1906574,23.7579582 C43.4814209,23.7579582 43.7545318,23.8108151 44.0099902,23.916529 C44.2654485,24.0222177 44.4944279,24.1807886 44.6792759,24.3833901 C44.8732023,24.5948179 45.0229972,24.8414752 45.1286606,25.1410904 C45.2431503,25.4404282 45.2961081,25.7753234 45.2961081,26.1540979 L45.2961081,26.1803247 C45.2961081,26.5593514 45.2431503,26.911647 45.1286606,27.2286374 C45.0141709,27.54588 44.8555497,27.8278173 44.6530491,28.0567969 C44.4502964,28.2857764 44.2124907,28.4620503 43.9482061,28.5941927 C43.6574425,28.7086825 43.3669312,28.7702144 43.0496888,28.7702144 Z M43.0320362,27.6162382 C43.2259626,27.6162382 43.3931579,27.5811852 43.5429528,27.5105748 C43.6927477,27.4402165 43.8160637,27.3431272 43.9217272,27.2198111 C44.0273906,27.096495 44.098001,26.9467 44.1507066,26.7795046 C44.2036644,26.612057 44.2389696,26.427209 44.2389696,26.2332825 L44.2389696,26.2156299 C44.2389696,25.828029 44.1333062,25.5110386 43.9040746,25.2555802 C43.6839214,25.008948 43.3843316,24.8767048 43.0055573,24.8767048 C42.8207093,24.8767048 42.6444355,24.9119344 42.5034669,24.9824187 C42.353672,25.0528274 42.230356,25.1584909 42.1246926,25.2732328 C42.0190291,25.3965489 41.9398446,25.5372654 41.8780605,25.704713 C41.8253549,25.8721606 41.7900497,26.0396082 41.7900497,26.2244562 L41.7900497,26.2509351 C41.7900497,26.4534357 41.8253549,26.6297096 41.8780605,26.7971572 C41.9398446,26.9643526 42.0278554,27.1053213 42.1246926,27.2286374 C42.230356,27.3519535 42.3624983,27.4490428 42.5211195,27.5194011 C42.6709144,27.5811852 42.8383619,27.6162382 43.0320362,27.6162382 Z M48.881351,20.2519737 L48.881351,27.730728 C48.881351,28.8408248 48.7227298,30.0828119 48.9958407,31.0958194 C48.7227298,30.928624 48.4760978,30.778829 48.2294657,30.5849025 C47.9475285,30.3647493 47.4013067,30.0739856 47.2868169,29.7832219 C47.0666638,29.1842942 47.2868169,28.453224 47.2868169,27.8452178 L47.2868169,19.873174 C47.2868169,19.0187121 47.4013067,20.0758007 47.1811535,19.3094001 C47.5952331,19.6617714 48.1238023,20.0669744 48.881351,20.2519737 Z M48.5552823,31.4745939 C47.5687542,31.3247989 45.7717196,31.4042357 44.6881022,31.4395409 C43.120047,31.5010728 41.428928,31.413062 39.9488836,31.4745939 C39.164856,31.5010728 37.8610855,31.5098991 37.2886369,31.5716833 C37.1123631,31.5890837 37.2886369,31.5716833 37.1300157,31.6243889 C36.7335888,31.7388787 36.3021088,31.7830102 35.8085926,31.8445421 C35.8703767,31.3247989 36.2844562,30.8227083 37.0243523,30.5584236 C38.5659286,30.0036273 41.6579074,30.3735756 44.0803484,30.2502595 C45.0492239,30.1973017 45.8070248,30.0036273 46.5027894,29.8185271 C47.1193694,30.4000545 47.8857444,30.9197977 48.5552823,31.4745939 Z M24.5595746,29.871485 C25.2906696,30.0212799 26.0131653,30.2149543 26.929083,30.2767384 C29.2019812,30.4088808 32.2851338,30.0212799 33.8794156,30.5057179 C34.7867592,30.778829 35.2449703,31.2279618 35.3241548,31.8445421 C34.8308907,31.7918365 34.3288004,31.7123998 33.9411997,31.5890837 C33.82671,31.5540307 33.1042144,31.4745939 32.9985509,31.4657676 C32.9193664,31.4569413 32.9985509,31.4657676 32.8928875,31.4745939 C30.5937626,31.6332152 27.7925473,31.4745939 25.4492908,31.4745939 C24.3657743,31.4745939 23.229426,31.448115 22.5158827,31.6243889 C23.2205997,31.0342874 24.0310305,30.5495973 24.5595746,29.871485 Z M22.242797,30.8756662 C22.4718269,29.9418432 22.295654,28.8319985 22.295654,27.8540441 L22.295654,20.2872033 C22.8770549,20.1550609 23.3439409,19.9260309 23.6698584,19.6617714 C23.7667711,19.582486 23.8020007,19.5120016 23.9429441,19.467971 C24.1103159,19.415114 23.9429441,20.9390637 23.9429441,21.6526073 L23.9429441,27.7660332 C23.9429441,28.4002662 24.1808002,29.1666415 23.9429441,29.7920482 C23.8724598,29.9771484 22.5158827,31.1046457 22.295654,31.1576035 C22.1282821,31.1926566 22.2251949,30.9460244 22.242797,30.8756662 Z M74.5860573,15.028214 C64.094361,15.028214 54.9417405,8.58001901 50.0000214,0.370020599 C45.0580502,8.58001901 35.8880293,15.028214 25.396333,15.028214 C22.4277963,15.028214 19.5648725,14.5877815 16.8692954,13.7685239 L16.8692954,50.0353023 C16.8692954,51.9644802 17.0454935,53.8407002 17.3626099,55.6730409 C17.899955,54.8186547 18.6134983,53.9463637 19.5472451,53.2417724 C20.2343599,52.7308555 21.0447908,52.2991232 21.9433081,51.9644802 C22.9739425,51.6033582 24.180775,51.5415741 25.237964,51.8058589 C27.6780575,52.4224393 29.2811657,54.2371273 30.1885093,55.646562 C30.5937626,56.280795 31.1488107,56.8005382 31.5099325,57.0471703 C31.6332485,57.1354334 31.7477382,57.1969653 31.8534016,57.2587494 C32.0912073,57.3908918 32.3378394,57.5316083 32.5405921,57.8488509 C32.7166137,58.1396146 33.1306933,59.4607862 33.4479357,60.5179252 L33.580078,60.9673102 C34.1525266,62.4382767 34.4168112,63.4074049 34.381506,63.8741903 C34.3199741,64.7200024 33.5977306,65.13383 33.2013037,65.3716358 L33.1042144,65.4245936 C33.0868139,65.4422462 33.0691613,65.4422462 33.0426824,65.4510725 C29.9595299,66.6315276 29.0786652,66.8340283 27.6604049,66.9308654 L27.633926,66.9308654 C27.4753048,66.9308654 27.3343362,66.8428546 27.2816306,66.6842333 C27.2198465,66.5344383 27.2728043,66.3584166 27.4049466,66.2615794 C27.6162734,66.0941318 27.9773952,65.979642 28.5854011,65.7768892 C29.4486132,65.4952041 30.7523838,65.072298 32.4084498,64.2441385 C32.6727344,64.0943435 32.9105401,63.9622012 32.6727344,63.0636834 C32.4876343,62.4382767 32.2145234,61.7248592 31.7742171,60.7733836 C31.6859541,60.6061882 31.5979433,60.4122617 31.5011062,60.2097611 C31.2456478,59.663539 30.9637106,59.0381323 30.6290678,58.8265532 L30.452794,58.6858367 C29.7567772,58.121962 28.9730018,57.4789027 28.4267799,56.6245165 C27.8276003,55.6906935 26.5503086,54.0346267 24.7357475,53.4795783 C23.4936854,53.0654985 22.0401956,53.3650885 20.3312475,54.3427908 C19.133216,55.0652868 18.2346987,56.1751315 17.6268945,57.1354334 C18.9834715,63.3279682 22.057823,68.8776959 26.3478081,73.2381422 C29.9418773,69.8291715 37.4734849,63.3367945 38.7772554,63.953627 C39.3499561,64.2264859 39.8785254,64.7815343 39.7814361,65.3189302 C39.7552094,65.4422462 39.7287305,65.5479097 39.6934253,65.6535732 C40.0986785,65.6712258 40.6007689,65.8386734 40.7593901,66.525612 C41.032501,67.3008137 40.5215844,67.9264725 40.1955156,68.3403001 C40.1075048,68.4462157 39.9930151,68.6045848 39.9488836,68.6928479 C40.8385746,70.3665673 40.1602105,71.8551865 37.8875644,73.2381422 C37.1917998,73.6610482 36.1170087,74.1984441 34.0292106,74.6125238 C33.1659985,74.7797192 31.6244222,75.7576737 30.3824357,76.735376 C34.7867592,79.9859776 40.0368944,82.1529613 45.7275881,82.8840315 C45.2254977,81.8886766 44.6881022,80.9725062 44.1507066,80.2941417 C43.9658587,80.0651622 43.7368792,79.8361826 43.4990735,79.5983768 C42.4858143,78.5853693 41.2261753,77.3166511 41.4816336,74.2952812 C41.6314285,72.4894194 44.0185643,70.3312621 46.582226,68.3579527 L48.5729349,68.9659589 C47.9122233,69.6440713 47.260338,70.2518253 46.6790632,70.7980474 C43.6662688,73.6080904 42.2921401,74.8853827 45.4986086,78.6733801 C46.0887098,79.3693973 46.9433478,81.1487801 47.7273754,83.077958 C48.4760978,83.1306636 49.2336464,83.1659688 50.0000214,83.1659688 C58.509583,83.1659688 66.2789963,79.9506724 72.1459637,74.6652295 C71.6436212,74.1984441 70.9213777,73.3702846 70.3489291,72.1018186 C69.3621488,69.9524875 69.1419957,66.9926496 68.8512321,63.6363845 C68.5518945,60.2801193 68.0672046,56.369058 66.2262906,52.3959603 C65.7769059,51.3917791 65.2218577,50.3964242 64.6052777,49.4187219 L65.7769059,48.2029616 C66.6577706,49.5508643 67.3449611,50.8632096 67.9000092,52.2464175 C69.6970438,56.5803849 69.8907181,60.5885356 69.9348496,63.9006692 C69.9525022,67.2128028 69.9083707,70.0140195 70.6659193,72.0929923 C71.0976515,73.3087526 71.7407105,74.1454862 72.1986693,74.6387505 C78.9111963,68.5783581 83.1306718,59.8045077 83.1306718,50.0441286 L83.1306718,13.7685239 C80.4262936,14.5877815 77.5632942,15.028214 74.5860573,15.028214 Z M55.2060251,17.1952482 C55.1268406,17.0983353 55.109188,16.9662182 55.1709721,16.8605043 C55.232504,16.7547904 55.35582,16.7019334 55.4791361,16.7283619 L58.0425456,17.3009621 L58.8353995,14.799184 C58.8707047,14.675868 58.9763681,14.5965825 59.0996842,14.5965825 C59.2230002,14.5965825 59.3286636,14.675868 59.3639688,14.799184 L60.1568227,17.3009621 L62.7202323,16.737163 C62.8435483,16.7107345 62.9668643,16.7635915 63.0286484,16.8693054 C63.0901803,16.9750193 63.081354,17.1071616 62.9933432,17.2040492 L61.2139612,19.1332271 L62.9933432,21.062405 C63.081354,21.1592926 63.0901803,21.2914349 63.0286484,21.3971488 C62.9668643,21.5028627 62.8435483,21.5556945 62.7202323,21.5380923 L60.1568227,20.9654921 L59.3727951,23.4672701 C59.3374899,23.5905862 59.2318265,23.6698717 59.1085105,23.6698717 C58.9851944,23.6698717 58.879531,23.5905862 58.8442258,23.4760712 L58.0513719,20.9743184 L55.4879624,21.5468934 C55.3734726,21.5733219 55.2413303,21.5204649 55.1797984,21.414751 C55.1180143,21.3090623 55.1356669,21.1769199 55.2148514,21.0888334 L56.9942334,19.1596556 L55.2060251,17.1952482 Z M61.8393676,31.6067363 C61.9273784,31.7035735 61.9362047,31.8357158 61.8746727,31.9416315 C61.8128887,32.047295 61.6895726,32.1000006 61.5662566,32.0737739 L59.6017745,31.6332152 L59.002847,33.5535668 C58.9675418,33.6680565 58.8530521,33.7563196 58.7385624,33.7563196 C58.6152464,33.7563196 58.509583,33.6768828 58.4654515,33.5623931 L57.8576977,31.6420415 L55.8932156,32.0826002 C55.7698996,32.1088269 55.6554099,32.0561213 55.5847995,31.9504578 C55.5232676,31.8445421 55.5409201,31.7123998 55.6201047,31.6155626 L56.9856593,30.1357697 L55.628931,28.6468983 C55.5497464,28.5588875 55.5320939,28.4267451 55.5936258,28.3210816 C55.6554099,28.2154182 55.7787259,28.1624603 55.9020419,28.1889393 L57.866524,28.6292457 L58.4742778,26.7088942 C58.509583,26.5944044 58.6240727,26.5063935 58.7473887,26.5063935 C58.8707047,26.5063935 58.9763681,26.5944044 59.0204996,26.7088942 L59.6194271,28.6292457 L61.5839092,28.1977656 C61.7072252,28.1712866 61.8305413,28.2242445 61.8920732,28.3299079 C61.9538573,28.4355714 61.9362047,28.5677138 61.8570201,28.6557246 L60.5002918,30.144596 L61.8393676,31.6067363 Z M46.8727374,9.40807762 C46.7935529,9.31999111 46.7759003,9.18784873 46.8376844,9.07333374 C46.8992163,8.96761984 47.0225323,8.91476289 47.1458483,8.94119136 L49.1103304,9.38164915 L49.7180842,7.46127238 C49.7533894,7.34675739 49.8590528,7.26747196 49.9823688,7.26747196 C50.1056849,7.26747196 50.2113483,7.34675739 50.2554798,7.46127238 L50.8544072,9.38164915 L52.8188894,8.94119136 C52.9422054,8.91476289 53.0655214,8.96761984 53.1273055,9.07333374 C53.1888374,9.18784873 53.1800111,9.31116481 53.0920003,9.40807762 L51.7352719,10.8879966 L53.1008266,12.3678904 C53.1888374,12.4560021 53.1976637,12.5969456 53.1361318,12.7026343 C53.0743477,12.8083482 52.959858,12.8612051 52.8277157,12.8347766 L50.8632335,12.3943188 L50.2643061,14.3146956 C50.2290009,14.4380117 50.1145112,14.5172971 49.9911951,14.5172971 C49.8678791,14.5172971 49.7622157,14.4380117 49.7269105,14.3146956 L49.1191567,12.3943188 L47.1546746,12.8347766 C47.0313586,12.8612051 46.9080426,12.8083482 46.8462585,12.7026343 C46.7847266,12.5969456 46.8023792,12.4560021 46.8815637,12.3678904 L48.2471183,10.8879966 L46.8727374,9.40807762 Z M21.1945352,32.5758645 C20.9743065,32.5758645 21.1769079,29.8097008 21.1769079,27.184758 C21.1769079,26.1099664 20.9214495,19.697001 21.1240509,19.697001 C21.1240509,19.6265418 22.0930525,19.6529451 22.7273104,19.6793736 C23.1765691,19.3446297 23.7227153,19.0451406 24.1103159,18.6839682 C24.8854163,18.9129982 25.8457177,19.124426 26.9732145,19.1684567 C30.822742,19.3182264 35.1831862,18.3844539 35.5269075,20.6219472 C36.1961932,18.3668517 39.9753625,19.3270275 44.0803484,19.1420282 C45.2608029,19.0891712 46.1769728,18.8689676 47.0578375,18.6575398 C47.4981438,18.9922836 47.99166,19.300599 48.4407926,19.6265418 C48.8901773,19.5912871 49.9911951,19.467971 49.9911951,19.6001134 C50.0529792,19.6001134 49.9470636,24.8238478 49.9735425,26.9908315 C50.017674,29.4309263 50.1762952,32.5846908 49.9911951,32.5846908 C49.9911951,32.8224966 45.0229972,32.5846908 42.3274453,32.5846908 C40.8385746,32.5846908 39.4909248,32.6197438 38.3369491,32.470201 C38.1959805,33.4567296 37.905217,33.8355041 35.6764502,33.8355041 C33.2628356,33.8355041 32.6639081,33.0426499 32.8664086,32.5493856 C31.8975331,32.6462227 30.391262,32.5758645 29.04336,32.5758645 C26.4181663,32.5758645 21.1945352,32.6991805 21.1945352,32.5758645 Z M25.1938325,37.3766173 C25.273017,37.4030962 26.3036766,38.3369191 28.3649958,38.847836 C30.5057518,39.4028845 33.4038042,39.032684 36.6897094,38.3984511 C39.9930151,37.7995233 43.9305535,37.0243216 48.4584452,37.640902 C51.6560874,38.0373291 54.9331664,39.3057951 57.8400451,41.0412986 C57.5139764,41.4200732 57.1440283,41.8429792 56.7476014,42.3097646 C54.1753655,40.7593613 51.3476713,39.5965588 48.5025767,39.1297734 C44.3622856,38.3896248 40.450974,38.9005417 37.0508312,39.2795684 C33.6680888,39.7022222 30.5496311,39.8608435 28.3385169,39.1121208 C26.1980132,38.42493 25.2641907,37.4030962 25.1938325,37.3766173 Z M27.5459152,39.7990594 C28.4883118,40.2925759 29.7393768,40.6272189 29.7393768,40.6272189 L38.5835812,62.5880717 L27.5459152,39.7990594 Z M37.0508312,40.2043128 C33.8531889,40.5303817 30.9195791,40.5919137 28.8759125,39.8431909 C26.9028563,39.147426 26.0131653,38.213603 25.9513812,38.1959504 C26.0131653,38.213603 26.9643882,39.1032945 28.9023914,39.7022222 C30.9284054,40.3452815 33.7298729,40.1516072 36.8833837,39.7110485 C40.0457207,39.2969688 43.8337163,38.7772256 48.0090604,39.5877325 C50.8544072,40.0986494 53.7085804,41.3055834 56.2808162,42.8559867 C56.087142,43.0849663 55.8843893,43.3227721 55.6730625,43.5694043 C53.2682741,42.107264 50.6430804,40.9530356 47.9828337,40.415892 C44.0099902,39.5524273 40.2572997,39.9138014 37.0508312,40.2043128 Z M41.7282656,65.1691352 L69.4239329,72.0929923 C69.4239329,72.0929923 70.1550027,73.4232424 70.4896455,73.9956913 L41.7282656,65.1691352 Z M61.3372772,48.3527566 C61.5132988,48.7315311 61.7160515,49.1544372 61.821715,49.6477015 C61.8658464,49.8502021 61.7775835,50.0441286 61.6103881,50.1497921 C61.2139612,50.3875979 60.6500867,50.3434664 60.1215175,50.2466292 C59.7780483,50.1850973 59.4608059,50.1409658 59.2406528,50.1939236 C58.8442258,50.3084134 58.6240727,50.6165775 58.3509618,51.0218309 C58.2803514,51.1274944 58.2099932,51.2245837 58.1308086,51.3302472 C57.9280559,51.5945319 57.531629,51.9997854 56.9856593,52.5545816 C55.505615,54.0608534 53.0213899,56.5715586 52.4930728,58.4830839 C52.440115,58.6770104 52.4136361,58.8177269 52.4048098,58.9324688 C52.316799,59.513744 52.1493515,59.7515498 51.3302709,60.0246609 C50.8544072,60.1832822 46.8023792,62.6937352 44.3622856,64.2353122 C44.2828489,64.28827 44.2036644,64.3059226 44.1156536,64.3059226 C43.974685,64.3059226 43.8337163,64.2353122 43.7368792,64.1208224 C43.5870843,63.9271481 43.6223895,63.6452108 43.7984112,63.4865895 C43.886422,63.4074049 45.8950356,61.6368483 46.8200318,61.055321 C47.1723272,60.8351678 47.5599279,60.6147624 47.9387022,60.4034354 C48.8725247,59.8836922 49.8325739,59.3551227 50.2201746,58.7738475 C50.5550696,58.2805832 50.6695593,58.0251248 50.8105279,57.7255348 C50.9338439,57.4524238 51.0748125,57.1440075 51.3829765,56.6330906 C52.1405252,55.3999298 53.1535322,54.4045749 54.1403125,53.4354468 C55.0123509,52.5722342 55.8402578,51.7617274 56.4482637,50.8369829 C57.1969861,49.6915808 57.7255554,48.6962259 58.113156,47.7096973 C58.6944309,46.2210781 62.2357945,44.3534322 63.0725277,44.1068001 C63.2576278,44.0538422 63.451302,44.1156264 63.5657918,44.2565951 C63.8742079,44.6265433 63.8742079,44.9700126 63.8212501,45.1815917 C63.6540548,45.8508777 62.8082431,46.2034255 62.0595207,46.5115896 C61.7952361,46.6260794 61.4956462,46.7493955 61.3811565,46.8288322 C60.8440131,47.2252593 60.9408503,47.5069445 61.3372772,48.3527566 Z M59.9982015,53.4442731 C59.5402426,55.646562 55.3999515,63.5042421 51.8674143,66.041174 L50.079206,65.5920412 C51.2331816,64.6405657 52.6075625,63.4954158 52.8012368,63.2487836 C54.0346491,61.6983803 59.0555527,53.1888146 59.1085105,53.1008038 C59.2318265,52.8983031 59.4784585,52.8100401 59.6986116,52.8983031 C59.9190169,52.9686614 60.042333,53.2064672 59.9982015,53.4442731 Z M65.9796586,53.0566722 C67.8911829,57.038344 68.3403155,60.8439941 68.5781212,63.9975064 C68.7897002,67.1600972 68.9218425,69.8556504 69.7850546,71.8110549 C70.5867348,73.7051798 71.8110687,74.5948712 71.8640265,74.6740558 C71.8110687,74.6036975 70.5426033,73.7578854 69.6087808,71.8287076 C68.6222527,69.8379978 68.3403155,67.0453552 67.9703674,63.8741903 C67.6004194,60.7030254 66.9838393,56.9768121 65.0634887,53.1888146 C64.4643091,51.9909591 64.3321667,51.629585 63.4954335,50.4756088 L64.1649714,49.8502021 C64.9136938,50.960299 65.4422631,51.9115223 65.9796586,53.0566722 Z M66.0411905,41.7196631 C66.0411905,41.7458899 64.4819617,39.4291112 62.7378849,41.4112469 C62.1828367,42.0454798 44.6530491,59.7250709 42.0366817,62.5615928 C40.9618906,63.6628634 40.8474009,63.6365507 40.8474009,63.6365507 C40.8474009,63.6365507 40.5919426,63.6452108 41.1293381,63.0021515 C43.7280529,60.1568033 60.1833016,41.1910936 60.9759033,40.2131392 C62.6057425,38.2047767 59.8307539,37.1388114 59.8572328,37.1299851 C59.8219276,37.1476377 64.8430834,36.4518728 66.4464438,35.8438665 C66.085322,37.3415642 66.0235379,41.7547162 66.0411905,41.7196631 Z M68.0583783,30.7611764 C68.0233252,30.7700027 67.98802,30.7700027 67.9527148,30.7700027 C67.7766932,30.7700027 67.6092457,30.6729133 67.5212349,30.5145442 C67.4153193,30.329444 67.4329719,30.0916382 67.5827668,29.9330169 L70.4984718,26.7530257 L67.5827668,23.5729588 C67.4329719,23.4144132 67.4153193,23.1765569 67.5212349,22.9915828 C67.6092457,22.833012 67.7766932,22.7449254 67.9527148,22.7449254 C67.98802,22.7449254 68.0233252,22.7449254 68.0672046,22.7537265 L72.278106,23.6874738 L73.5727981,19.5736849 C73.6345822,19.3710582 73.8370827,19.2301147 74.0486617,19.2301147 C74.2688148,19.2301147 74.4627413,19.3710582 74.5242732,19.582486 L75.8192174,23.6963001 L80.0210404,22.7625276 C80.0475193,22.7537265 80.0739982,22.7537265 80.1004771,22.7449254 L80.1531827,22.7449254 C80.4262936,22.7449254 80.6464468,22.9739554 80.6464468,23.2470413 C80.6464468,23.3879847 80.5937411,23.5113008 80.496904,23.5993873 L77.5985994,26.761852 L80.5231307,29.9418432 C80.6729257,30.1004645 80.6994046,30.3382703 80.5849148,30.5233705 C80.496904,30.6817397 80.3294565,30.778829 80.1531827,30.778829 C80.1181297,30.778829 80.0739982,30.778829 80.038693,30.7700027 L75.8280437,29.8273534 L74.5330995,33.9411676 C74.4713154,34.1524945 74.2776411,34.2934632 74.057488,34.2934632 C73.8370827,34.2934632 73.6434085,34.1524945 73.5816244,33.9411676 L72.2866801,29.8273534 L68.0583783,30.7611764 Z M80.6552731,45.4458765 C80.7258835,45.525061 80.7435361,45.6483771 80.6905783,45.736388 C80.6376205,45.8334773 80.531957,45.8861829 80.4174673,45.859704 L77.1318143,45.1286339 L76.1188072,48.3439303 C76.083502,48.4495938 75.9866649,48.5202042 75.8810015,48.5202042 C75.7662596,48.5202042 75.6782488,48.4495938 75.6341173,48.3439303 L74.6299366,45.1286339 L71.3354572,45.859704 C71.2297938,45.8861829 71.1153041,45.8334773 71.0623463,45.736388 C71.0093885,45.6483771 71.0270411,45.525061 71.0976515,45.4458765 L73.3791238,42.9616502 L71.0976515,40.4774239 C71.0270411,40.3982394 71.0093885,40.2837496 71.0623463,40.1866602 C71.1153041,40.0898231 71.2297938,40.0459437 71.3354572,40.0633442 L74.6299366,40.8034928 L75.6429436,37.5793701 C75.7047277,37.3766173 76.0570231,37.3766173 76.1276335,37.5793701 L77.1406406,40.8034928 L80.4262936,40.0721705 C80.5407833,40.0545179 80.6464468,40.0986494 80.6994046,40.1954865 C80.7611887,40.2925759 80.7435361,40.415892 80.6640994,40.4862502 L78.382627,42.9704765 L80.6552731,45.4458765 Z M38.2486861,65.5214308 C37.2356791,65.3804621 31.8092701,70.1814671 29.2019812,72.5070721 C28.4356062,73.1854366 27.8276003,73.7225802 27.3166836,74.1631388 C27.8982107,74.7181873 28.4971381,75.2467568 29.1225445,75.7488474 C30.6641208,74.4539025 32.7519189,72.9650311 34.2054844,72.9562048 C35.2800233,72.9476307 36.7159362,72.3661034 37.8522592,71.4675856 C37.8875644,71.4411067 37.9405222,71.4060537 38.0108804,71.3619222 C38.3104702,71.1591694 38.8743447,70.7715685 38.8743447,70.207946 C38.8566921,69.9877927 38.7596028,69.8115188 38.6539394,69.608766 C38.548276,69.4150917 38.4337862,69.1949385 38.398481,68.9130011 C38.3546017,68.5254003 38.6100601,68.2522892 38.8478658,68.0056571 C39.1736823,67.6621878 39.2354664,67.547698 39.164856,67.3890767 C39.0062348,67.1159656 38.9270503,67.1336182 38.7333761,67.1774976 C38.6012338,67.2039765 38.2136331,67.2922395 38.0108804,66.9308654 C37.8260325,66.5873961 37.9932278,66.2439268 38.1253701,65.9708157 C38.275165,65.6535732 38.2839913,65.5743886 38.2486861,65.5214308 Z" fill="#162F40" fill-rule="nonzero" mask="url(#mask-26)"></path>
            </g>
        </g>
    </g>
</svg><style>@media (prefers-color-scheme: light) { :root { filter: none; } }
@media (prefers-color-scheme: dark) { :root { filter: none; } }
</style></svg>